<svg width="64" height="64" viewBox="0 0 64 64" fill="none" xmlns="http://www.w3.org/2000/svg">
<circle cx="32" cy="32" r="32" fill="#FF7A9D"/>
<path d="M32 45.3334C39.3638 45.3334 45.3333 39.3638 45.3333 32C45.3333 24.6362 39.3638 18.6667 32 18.6667C24.6362 18.6667 18.6666 24.6362 18.6666 32C18.6666 39.3638 24.6362 45.3334 32 45.3334Z" stroke="white" stroke-width="3" stroke-linecap="round" stroke-linejoin="round"/>
<path d="M32 40C36.4182 40 40 36.4183 40 32C40 27.5817 36.4182 24 32 24C27.5817 24 24 27.5817 24 32C24 36.4183 27.5817 40 32 40Z" stroke="white" stroke-width="3" stroke-linecap="round" stroke-linejoin="round"/>
<path d="M32 34.6667C33.4727 34.6667 34.6666 33.4728 34.6666 32C34.6666 30.5273 33.4727 29.3334 32 29.3334C30.5272 29.3334 29.3333 30.5273 29.3333 32C29.3333 33.4728 30.5272 34.6667 32 34.6667Z" stroke="white" stroke-width="3" stroke-linecap="round" stroke-linejoin="round"/>
</svg>
