<svg width="64" height="64" viewBox="0 0 64 64" fill="none" xmlns="http://www.w3.org/2000/svg">
<circle cx="32" cy="32" r="32" fill="#6633FF"/>
<path d="M39.3333 24.6667H39.3467M25.3333 18.6667H38.6667C42.3486 18.6667 45.3333 21.6515 45.3333 25.3334V38.6667C45.3333 42.3486 42.3486 45.3334 38.6667 45.3334H25.3333C21.6514 45.3334 18.6667 42.3486 18.6667 38.6667V25.3334C18.6667 21.6515 21.6514 18.6667 25.3333 18.6667ZM37.3333 31.16C37.4979 32.2697 37.3083 33.403 36.7917 34.3987C36.275 35.3944 35.4575 36.2019 34.4555 36.7063C33.4535 37.2106 32.3179 37.3861 31.2104 37.2079C30.1028 37.0297 29.0797 36.5068 28.2864 35.7136C27.4932 34.9203 26.9703 33.8972 26.7921 32.7896C26.6139 31.6821 26.7894 30.5465 27.2938 29.5445C27.7981 28.5425 28.6056 27.725 29.6013 27.2083C30.597 26.6917 31.7303 26.5021 32.84 26.6667C33.9719 26.8345 35.0198 27.362 35.8289 28.1711C36.638 28.9802 37.1655 30.0281 37.3333 31.16Z" stroke="white" stroke-width="3" stroke-linecap="round" stroke-linejoin="round"/>
</svg>
