<svg width="166" height="35" viewBox="0 0 166 35" fill="none" xmlns="http://www.w3.org/2000/svg">
<g clip-path="url(#clip0_1_6)">
<path d="M130.387 32.7596C129.856 32.5096 129.702 32.0769 129.963 31.5385C130.368 30.7019 132.761 30.0962 134.827 30.2981C135.387 30.3462 136.159 30.4327 136.545 30.4808C137.529 30.6154 138.436 30.5962 139.17 30.4423C140.415 30.1827 141.139 29.7788 141.93 28.9135C142.451 28.3462 142.538 28.1923 142.934 27.1346C143.107 26.6923 143.107 24.7788 142.934 24.1827C142.799 23.6827 142.393 22.9808 142.248 22.9808C142.2 22.9808 141.891 23.2019 141.563 23.4615C141.225 23.7308 140.849 24.0096 140.714 24.0769C140.579 24.1442 140.318 24.2885 140.125 24.3942C139.681 24.6538 138.234 25.1346 137.471 25.2788C137.153 25.3365 136.438 25.3846 135.888 25.3846C135.338 25.3846 134.624 25.3365 134.306 25.2788C133.543 25.1346 132.105 24.6538 131.652 24.4038C131.458 24.2885 131.217 24.1538 131.111 24.0962C129.316 23.0962 127.714 21.125 126.961 18.9904C126.807 18.5673 126.71 18.0769 126.575 17.1154C126.141 14.0192 127.559 10.6635 130.117 8.72116C131.835 7.41346 133.833 6.73077 135.908 6.73077C139.16 6.73077 142.277 8.50962 143.918 11.2981C144.806 12.8173 145.153 14.1442 145.153 16.0577C145.153 18.0481 144.825 19.25 143.822 20.9904C143.706 21.1923 143.609 21.3942 143.609 21.4519C143.609 21.5 143.773 21.7981 143.986 22.0962C144.594 23 144.96 24.3462 144.96 25.7019C144.96 26.7404 144.594 28.2019 144.14 29C143.281 30.4712 142.316 31.2885 140.569 32.0288C139.826 32.3365 138.089 32.375 136.033 32.1154C133.92 31.8558 132.742 31.9135 131.931 32.3077C131.748 32.4038 131.41 32.5673 131.188 32.6827C130.725 32.9135 130.715 32.9135 130.387 32.7596ZM137.896 23.3173C138.552 23.1442 139.343 22.7596 140.135 22.25C142.567 20.6635 143.87 17.5096 143.272 14.6538C143.088 13.7596 143.078 13.7308 142.557 12.5865C142.142 11.6538 141.11 10.5 140.135 9.875C138.61 8.88462 137.732 8.61539 135.937 8.61539C134.653 8.60577 134.035 8.69231 133.379 8.96154C133.244 9.01923 133.032 9.10577 132.897 9.16346C132.655 9.25 132.578 9.28846 131.902 9.65385C131.314 9.96154 130.127 11.125 129.625 11.8654C129.162 12.5481 128.679 13.6827 128.467 14.5481C128.332 15.125 128.332 17.0096 128.467 17.5385C128.804 18.8462 128.978 19.2596 129.548 20.1442C129.972 20.7885 131.352 22.1827 131.796 22.4038C131.951 22.4808 132.182 22.6154 132.317 22.6923C132.771 22.9904 134.074 23.4231 134.73 23.5C135.367 23.5769 137.384 23.4615 137.896 23.3173ZM68.089 25.2404C64.8558 24.5673 62.0956 22.1346 61.0533 19.0192C60.6093 17.6731 60.4742 15.6442 60.7444 14.2788C61.4297 10.7788 64.103 7.92308 67.5099 7.03846C68.7935 6.70192 70.2412 6.63462 71.3607 6.83654C72.1617 6.98077 73.648 7.45192 74.063 7.69231C74.256 7.79808 74.5745 7.97115 74.7772 8.08654C75.3949 8.43269 76.1284 9.04808 76.8329 9.78846C77.4988 10.5 77.4988 10.5 77.4988 5.54808C77.4988 0.596154 77.4988 0.596155 77.7498 0.298078C78.1648 -0.192307 78.9079 -0.0673069 79.2264 0.548078C79.3712 0.836539 79.3712 16.25 79.2264 17.2308C78.9176 19.2212 78.049 21.0481 76.7557 22.4038C75.3563 23.8942 73.7349 24.7885 71.5827 25.2788C70.9843 25.4135 68.8224 25.3942 68.089 25.2404ZM70.7141 23.5577C71.7854 23.4135 72.1424 23.3077 73.2041 22.8269C73.677 22.6154 74.3622 22.1635 74.7483 21.8077C74.9123 21.6635 75.0571 21.5385 75.0957 21.5385C75.1247 21.5385 75.3852 21.25 75.6844 20.8942C76.1959 20.2596 76.9101 19.0577 77.0549 18.5577C77.3927 17.4038 77.4216 17.1827 77.4216 16.0096C77.4216 14.8173 77.3251 14.1923 77.0163 13.4135C76.2152 11.3558 74.5842 9.75962 72.5285 9.00962C71.5537 8.65385 71.2449 8.60577 69.9227 8.60577C68.6005 8.60577 68.2916 8.65385 67.3169 9.00962C65.4252 9.70192 63.9969 11.0192 63.08 12.9231C62.5395 14.0385 62.2886 15.5481 62.443 16.7788C62.8291 19.8173 64.5663 22.0577 67.4134 23.1731C67.7512 23.3077 68.0697 23.3846 68.861 23.5096C69.8744 23.6731 69.8455 23.6731 70.7141 23.5577ZM90.4797 25.2404C88.6749 24.8654 87.0921 24.0096 85.7409 22.6538C84.3415 21.2596 83.4633 19.625 83.1062 17.7308C82.9517 16.9135 82.971 15.0769 83.1448 14.25C83.6273 11.9519 84.8723 9.98077 86.7157 8.60577C87.0921 8.32692 88.1055 7.69231 88.173 7.69231C88.1923 7.69231 88.424 7.60577 88.6749 7.49039C89.3794 7.18269 89.4856 7.14423 89.9488 7.02885C90.9815 6.78846 91.4641 6.73077 92.3616 6.73077C94.1954 6.73077 95.9712 7.26923 97.5057 8.29808C98.5673 9 99.822 10.3173 100.362 11.2692C100.478 11.4712 100.652 11.7885 100.758 11.9712C101.221 12.7885 101.714 14.7788 101.723 15.8462C101.723 16.2885 101.685 16.4038 101.443 16.6442C101.163 16.9231 101.163 16.9231 93.0372 16.9231C85.3452 16.9231 84.9206 16.9327 84.9688 17.0962C84.9978 17.1827 85.046 17.4327 85.0847 17.6442C85.3742 19.4038 86.6481 21.3365 88.2116 22.3654C89.7076 23.3558 91.6185 23.7885 93.2785 23.5192C94.5428 23.3077 95.064 23.1538 95.7878 22.7596C95.894 22.7019 96.0677 22.6154 96.1738 22.5577C96.5695 22.3462 97.1583 21.875 97.6891 21.3269C98.1427 20.8654 98.3067 20.7692 98.5673 20.7692C99.0402 20.7692 99.4166 21.1923 99.4263 21.7308C99.4263 22.0962 99.378 22.1827 98.8665 22.7019C97.9497 23.6346 96.4537 24.5769 95.3052 24.9615C94.0313 25.3846 91.7922 25.5096 90.4797 25.2404ZM99.793 15.0481C99.793 14.875 99.7351 14.4904 99.6579 14.2115C99.0209 11.7885 97.3609 9.93269 95.064 9.06731C93.9444 8.64423 93.6935 8.60577 92.3134 8.61539C90.7595 8.625 89.9488 8.79808 88.9355 9.35577C88.8293 9.41346 88.6556 9.5 88.5494 9.55769C87.2176 10.2788 85.7409 12.0577 85.297 13.5C85.0557 14.2788 84.9302 14.8462 84.9302 15.0962C84.9302 15.3846 84.9302 15.3846 92.3616 15.3846C99.793 15.3846 99.793 15.3846 99.793 15.0481ZM108.913 25.2788C107.582 24.9615 106.887 24.7115 106.259 24.2981C105.786 23.9808 104.619 22.8942 104.619 22.7596C104.619 22.7115 104.522 22.5385 104.406 22.3846C104.146 22.0192 104.117 21.3558 104.348 21.125C104.744 20.7212 105.574 20.8846 105.893 21.4231C106.115 21.7885 106.8 22.4712 107.273 22.7885C108.363 23.5288 110.544 23.8654 111.925 23.5096C113.247 23.1635 114.395 22.3462 114.83 21.4135C115.119 20.8077 115.129 19.6731 114.849 19.1442C114.637 18.7212 113.893 18.0192 113.343 17.7308C113.141 17.625 112.88 17.4904 112.774 17.4327C112.6 17.3365 112.417 17.2596 111.838 17.0288C111.461 16.8846 111.066 16.75 110.313 16.5385C109.473 16.2885 109.106 16.1731 108.769 16.0385C108.633 15.9808 108.44 15.9038 108.334 15.8654C108.228 15.8365 107.842 15.6538 107.466 15.4712C105.545 14.5481 104.619 13.2404 104.619 11.4519C104.619 9.32692 106.037 7.64423 108.334 7.03846C109.28 6.78846 109.685 6.73077 110.544 6.73077C112.166 6.73077 113.826 7.25 114.839 8.06731C115.389 8.51923 116.007 9.45192 116.007 9.84616C115.997 10.2885 115.708 10.6154 115.302 10.6154C115.023 10.6154 114.878 10.5192 114.308 9.95192C112.803 8.43269 110.728 8.06731 108.344 8.89423C107.755 9.09616 107.195 9.52885 106.8 10.0962C106.52 10.5096 106.501 10.5769 106.501 11.4423C106.501 12.3173 106.51 12.375 106.819 12.8077C107.157 13.3077 107.977 13.9038 108.672 14.1731C109.077 14.3365 109.685 14.5385 111.181 15.0096C111.529 15.1154 112.05 15.2885 112.34 15.4038C112.629 15.5096 112.957 15.625 113.063 15.6635C114.443 16.1635 116.084 17.3846 116.451 18.1827C116.982 19.3269 117.088 20.125 116.837 21.1731C116.547 22.3846 115.746 23.5 114.665 24.2212C113.855 24.7596 113.401 24.9519 112.243 25.2404C111.635 25.3942 109.521 25.4135 108.913 25.2788ZM121.46 25.0769C120.948 24.7788 120.977 25.3365 120.948 16.2115C120.919 6.78846 120.881 7.27885 121.556 7.02885C121.827 6.93269 121.933 6.94231 122.174 7.05769C122.801 7.38462 122.763 6.79808 122.763 16.0385C122.763 25.1538 122.782 24.8269 122.232 25.0769C121.923 25.2212 121.711 25.2212 121.46 25.0769ZM149.12 24.9135C148.821 24.6346 148.821 24.6346 148.821 19.6058C148.821 16.2404 148.86 14.3846 148.927 14C149.738 9.74039 153.27 6.73077 157.459 6.73077C161.145 6.73077 164.176 8.95192 165.392 12.5481C165.836 13.8462 165.855 14.1058 165.855 19.5481C165.855 24.7308 165.855 24.7308 165.566 24.9615C165.16 25.2885 164.736 25.2692 164.369 24.8942C164.07 24.5962 164.07 24.5962 164.07 19.7308C164.07 14.7788 164.07 14.7019 163.703 13.25C163.423 12.1731 162.313 10.5385 161.396 9.88462C160.007 8.89423 159.148 8.61539 157.459 8.60577C156.194 8.60577 155.779 8.68269 154.93 9.04808C154.698 9.15385 154.486 9.23077 154.457 9.23077C154.312 9.23077 153.183 10.0481 152.749 10.4712C152.237 10.9519 151.687 11.7212 151.359 12.4038C150.655 13.8558 150.568 14.7404 150.558 20.2596C150.558 24.7981 150.558 24.7981 150.278 24.9904C149.883 25.2788 149.477 25.25 149.12 24.9135Z" fill="white"/>
<path d="M126.971 34.7596C126.565 34.3846 126.421 33.9519 126.546 33.5192C126.729 32.9231 127.048 32.6923 127.656 32.6923C128.312 32.6923 128.66 32.9135 128.843 33.4519C129.007 33.9519 128.911 34.2885 128.496 34.6827C128.206 34.9519 128.081 35 127.695 35C127.337 35 127.173 34.9423 126.971 34.7596ZM47.7829 31.5288C47.2907 31.3173 46.9819 30.9904 46.7116 30.4135C46.5379 30.0385 46.5186 29.7981 46.5186 27.5577C46.5186 25.1154 46.5186 25.1154 46.0167 24.9615C43.3627 24.1346 41.056 21.8846 40.1681 19.2692C39.7242 17.9615 39.7145 17.7692 39.7145 13.0769C39.7145 8.92308 39.7242 8.57692 39.8979 8.23077C40.3515 7.27885 41.3938 6.75962 42.3493 7.02885C43.0056 7.20192 43.382 7.48077 43.7101 8.02885C44.0093 8.51923 44.0093 8.51923 44.0093 12.6442C44.019 17 44.0576 17.4712 44.4726 18.375C44.9648 19.4327 45.9878 20.3462 47.1556 20.7596C47.6092 20.9135 47.9663 20.9615 48.7384 20.9615C50.2922 20.9615 51.1801 20.5769 52.1838 19.4904C52.6857 18.9327 53.149 18.1154 53.3034 17.4615C53.3613 17.2308 53.4192 15.2404 53.4385 12.8365C53.4578 9.77885 53.4964 8.53846 53.5833 8.36539C53.9307 7.65385 54.4133 7.24039 55.195 7.00962C55.5231 6.91346 55.6969 6.91346 56.1022 7.00962C56.7392 7.17308 57.1542 7.48077 57.492 8.05769C57.7622 8.50962 57.7622 8.50962 57.7622 13.0288C57.7622 17.7692 57.7526 17.9615 57.3086 19.2692C57.1059 19.8462 56.4883 21.0769 56.1408 21.5865C55.7065 22.2115 54.5387 23.3173 53.757 23.8365C52.8594 24.4423 52.3479 24.6923 51.5179 24.9423C50.9581 25.1154 50.9581 25.1154 50.9581 27.3269C50.9581 29.625 50.8906 30.2115 50.5431 30.7212C49.9351 31.625 48.7673 31.9615 47.7829 31.5288ZM7.76919 25.2596C7.09361 25.125 5.63628 24.6346 5.22128 24.4038C5.02826 24.2885 4.78698 24.1538 4.68081 24.0962C4.40093 23.9423 3.92802 23.625 3.80256 23.5096C3.74465 23.4615 3.48407 23.2404 3.22349 23.0385C2.18116 22.2019 1.12919 20.625 0.598373 19.0865C0.135117 17.7308 0.144768 17.8654 0.144768 10.2308C0.144768 3.00962 0.144768 3.00962 0.434303 2.53846C0.617675 2.25 0.90721 1.96154 1.19674 1.77885C1.60209 1.52885 1.76616 1.49039 2.30663 1.49039C3.02081 1.5 3.43581 1.66346 3.87977 2.15385C4.35267 2.65385 4.39128 2.81731 4.43954 4.93269C4.48779 6.93269 4.48779 6.93269 7.89465 6.92308C11.5524 6.91346 11.8034 6.94231 12.4983 7.41346C13.666 8.19231 13.6467 10.1154 12.479 10.8846C11.7841 11.3365 11.649 11.3558 7.96221 11.3462C4.48779 11.3365 4.48779 11.3365 4.45884 13.8654C4.42023 16.875 4.46849 17.1827 5.09581 18.5385C5.47221 19.3654 6.70756 20.375 7.81744 20.7692C8.715 21.0865 10.2978 21.0865 11.1953 20.7692C11.8227 20.5481 12.4886 20.1538 12.7395 19.8558C12.8167 19.7692 13.0773 19.5962 13.3379 19.4615C14.3706 18.9423 15.6059 19.3462 16.0885 20.3654C16.3201 20.8462 16.2815 21.8846 16.0209 22.3558C15.4708 23.3462 13.9845 24.4135 12.4114 24.9423C11.1857 25.3558 9.00453 25.5096 7.76919 25.2596ZM25.4308 25.2885C25.3247 25.2404 25.122 25.2019 24.9869 25.2019C24.6298 25.1923 23.5971 24.8462 22.8733 24.4904C20.4701 23.3269 18.7136 21.3269 17.874 18.7981C17.3817 17.3173 17.3817 14.7981 17.874 13.3173C18.646 11.0096 20.2771 9.03846 22.4004 7.85577C23.6647 7.14423 25.3053 6.73077 26.8109 6.73077C28.3358 6.73077 29.7159 7.06731 31.0767 7.76923C33.6536 9.08654 35.3426 11.2788 36.0085 14.1827C36.1147 14.625 36.1436 15.75 36.1436 19.1442C36.1436 23.5192 36.1436 23.5192 35.9023 23.9808C35.6224 24.5385 35.0434 24.9519 34.3581 25.1154C33.4702 25.3173 32.5051 24.8365 32.0901 23.9904C31.9357 23.6538 31.8778 23.6442 31.5593 23.8942C31.318 24.0962 29.9379 24.7885 29.4554 24.9615C29.2044 25.0481 28.7026 25.1827 28.3262 25.25C27.583 25.3942 25.7397 25.4231 25.4308 25.2885ZM28.5192 20.75C29.5133 20.4038 30.2854 19.8077 30.8741 18.9423C31.5786 17.9038 31.7909 17.2308 31.7909 16.0577C31.7909 14.8846 31.5786 14.2115 30.8741 13.1635C30.295 12.3077 29.6001 11.8077 28.249 11.2596C27.834 11.0962 25.9037 11.125 25.3826 11.3077C23.5778 11.9327 22.3714 13.2212 21.9467 14.9904C21.3001 17.7019 23.3076 20.6058 26.1064 21C26.6855 21.0769 27.9498 20.9519 28.5192 20.75Z" fill="white"/>
</g>
<defs>
<clipPath id="clip0_1_6">
<rect width="166" height="35" fill="white"/>
</clipPath>
</defs>
</svg>
